<svg xmlns="http://www.w3.org/2000/svg" width="112.248" height="21" viewBox="15 36.167 112.248 21" enable-background="new 15 36.167 112.248 21"><path fill="#28AAE1" d="M27.182 48.918a5.778 5.778 0 0 0-1.499-.757 17.475 17.475 0 0 0-1.728-.485 64.167 64.167 0 0 0-1.685-.37 13.182 13.182 0 0 1-1.471-.387c-.428-.143-.776-.328-1.042-.557a1.11 1.11 0 0 1-.4-.885c0-.305.076-.547.229-.729.152-.182.337-.318.556-.414s.462-.158.729-.186c.266-.029.514-.043.742-.043.724 0 1.352.138 1.885.414.434.225.711.617.829 1.178a.51.51 0 0 0 .497.406h2.832a.497.497 0 0 0 .505-.605c-.114-.648-.322-1.203-.622-1.664a4.597 4.597 0 0 0-1.471-1.441 6.14 6.14 0 0 0-2.013-.771 11.649 11.649 0 0 0-2.328-.229c-.799 0-1.58.071-2.341.213a6.477 6.477 0 0 0-2.056.744c-.61.352-1.1.832-1.471 1.441-.371.609-.557 1.391-.557 2.342 0 .647.133 1.195.4 1.643.266.447.618.818 1.056 1.113s.938.533 1.5.713c.561.183 1.137.34 1.727.473 1.447.304 2.575.609 3.384.914.81.304 1.214.761 1.214 1.369 0 .363-.085.662-.257.9-.171.238-.385.428-.642.571s-.543.248-.857.313a4.317 4.317 0 0 1-.9.101c-.399 0-.785-.047-1.156-.144a3.022 3.022 0 0 1-.986-.441 2.379 2.379 0 0 1-.699-.771 1.994 1.994 0 0 1-.237-.685.516.516 0 0 0-.504-.442h-2.831a.503.503 0 0 0-.509.577c.09.737.298 1.368.625 1.893a4.9 4.9 0 0 0 1.571 1.586 6.643 6.643 0 0 0 2.185.856 12.553 12.553 0 0 0 4.983.015 6.243 6.243 0 0 0 2.156-.844 4.658 4.658 0 0 0 1.528-1.585c.39-.655.586-1.47.586-2.44 0-.687-.134-1.262-.4-1.729a3.658 3.658 0 0 0-1.057-1.171m14.421 1.999a4.616 4.616 0 0 1-.585 1.514 3.093 3.093 0 0 1-1.114 1.071c-.467.267-1.042.399-1.728.399-.685 0-1.256-.133-1.713-.399s-.824-.624-1.1-1.071a4.577 4.577 0 0 1-.585-1.514 8.871 8.871 0 0 1 0-3.47 4.44 4.44 0 0 1 .585-1.513c.276-.438.643-.795 1.1-1.071s1.028-.414 1.713-.414c.686 0 1.261.138 1.728.414.466.276.837.633 1.114 1.071.275.438.471.941.585 1.513a8.87 8.87 0 0 1 0 3.47m2.142-7.396a6.885 6.885 0 0 0-2.413-1.57c-.943-.371-1.995-.557-3.156-.557s-2.209.186-3.141.557a6.914 6.914 0 0 0-2.399 1.57c-.667.677-1.181 1.494-1.542 2.455-.362.963-.543 2.033-.543 3.214s.181 2.247.543 3.198a6.89 6.89 0 0 0 1.542 2.441 6.705 6.705 0 0 0 2.399 1.557c.932.361 1.98.543 3.141.543s2.213-.182 3.156-.543a6.68 6.68 0 0 0 2.413-1.557 6.927 6.927 0 0 0 1.542-2.441c.362-.951.543-2.018.543-3.198s-.181-2.251-.543-3.214c-.362-.961-.876-1.779-1.542-2.455m18.216 7.382h-2.885a.5.5 0 0 0-.493.382c-.162.737-.468 1.338-.916 1.803-.524.542-1.271.813-2.242.813-.628 0-1.161-.143-1.599-.428-.438-.285-.785-.652-1.043-1.1s-.442-.947-.557-1.5a7.96 7.96 0 0 1 0-3.298c.114-.562.31-1.076.586-1.542.275-.467.633-.848 1.07-1.143s.98-.442 1.628-.442c1.601 0 2.575.723 2.925 2.168a.5.5 0 0 0 .49.373h2.986a.516.516 0 0 0 .507-.593 5.277 5.277 0 0 0-.625-1.877 5.564 5.564 0 0 0-1.558-1.742c-.637-.467-1.36-.814-2.17-1.043s-1.651-.342-2.527-.342c-1.199 0-2.266.199-3.198.6s-1.724.956-2.37 1.67a7.158 7.158 0 0 0-1.471 2.542c-.333.981-.5 2.042-.5 3.185 0 1.104.181 2.118.543 3.041.361.924.865 1.719 1.513 2.385s1.433 1.186 2.356 1.557 1.938.557 3.042.557c1.96 0 3.569-.514 4.825-1.542 1.121-.915 1.847-2.202 2.181-3.858a.516.516 0 0 0-.498-.626m4.921-14.736h-1.406a.513.513 0 0 0-.512.514v2.314c0 .283.229.513.512.513h3.03a.513.513 0 0 0 .513-.513v-.691c0-1.18-.957-2.137-2.137-2.137m2.136 7.656a2.03 2.03 0 0 0-2.029-2.031h-1.516a.511.511 0 0 0-.51.512v13.743c0 .282.229.511.51.511h3.035a.51.51 0 0 0 .51-.511V43.823zm7.369 10.035a1.541 1.541 0 0 1-.544-.585c-.133-.247-.198-.552-.198-.914 0-.381.065-.694.198-.942.134-.248.31-.452.529-.614.219-.161.476-.29.771-.386a7.59 7.59 0 0 1 .899-.229c.324-.057.647-.104.972-.143.323-.037.633-.086.928-.143s.572-.129.828-.214c.055-.019.107-.038.158-.06.231-.096.484.082.484.334v.882c0 .164-.016.381-.041.623a6.53 6.53 0 0 1-.191.931 3.382 3.382 0 0 1-.225.488c-.043.077-.094.15-.146.222-.017.021-.031.044-.047.064-.074.095-.166.183-.248.274a.537.537 0 0 1-.056.051 3.378 3.378 0 0 1-1.276.646c-.308.066-.658.1-1.054.1a5.11 5.11 0 0 1-.942-.086 2.22 2.22 0 0 1-.799-.299m6.939-11.693a6.855 6.855 0 0 0-2.085-.614 16.698 16.698 0 0 0-2.257-.157c-.818 0-1.633.081-2.441.242a6.983 6.983 0 0 0-2.186.814 4.871 4.871 0 0 0-1.599 1.514c-.327.49-.545 1.082-.651 1.771a.502.502 0 0 0 .508.598h3.048a.528.528 0 0 0 .495-.4c.117-.593.365-1.03.742-1.312.457-.343 1.084-.514 1.885-.514.361 0 .699.024 1.014.071.314.048.59.144.828.286s.428.342.571.599c.143.257.214.604.214 1.043.02.419-.105.738-.371.956-.268.219-.628.387-1.085.5-.457.114-.981.2-1.571.257-.59.058-1.189.134-1.799.229-.609.095-1.214.223-1.812.385a5.106 5.106 0 0 0-1.601.729c-.466.323-.847.756-1.142 1.299s-.443 1.233-.443 2.07c0 .762.129 1.42.387 1.971.256.553.613 1.01 1.07 1.371.23.184.809.539 1.545.824.749.291 1.916.424 2.264.424.307.021.828.047 1.139.047.923 0 1.826-.092 2.707-.277a7.128 7.128 0 0 0 2.354-.923c.688-.431 1.252-.999 1.692-1.707s.682-1.595.723-2.661v-6.007c0-.896-.2-1.614-.6-2.157a4.113 4.113 0 0 0-1.543-1.271m16.791 11.693c-.229-.143-.41-.338-.543-.585s-.199-.552-.199-.914c0-.381.066-.694.199-.942s.31-.452.528-.614a2.69 2.69 0 0 1 .771-.386 7.64 7.64 0 0 1 .899-.229c.324-.057.648-.104.972-.143.324-.037.633-.086.929-.143.295-.057.571-.129.827-.214.055-.019.107-.038.158-.06.231-.096.484.082.484.334v.882c0 .164-.016.381-.041.623a6.53 6.53 0 0 1-.191.931 3.278 3.278 0 0 1-.225.488 2.1 2.1 0 0 1-.148.223c-.015.021-.028.043-.045.063-.076.095-.166.183-.25.274a.688.688 0 0 1-.055.053c-.326.272-.792.52-1.275.645-.308.066-.657.1-1.053.1-.324 0-.639-.029-.943-.086a2.255 2.255 0 0 1-.799-.3m6.94-11.693a6.855 6.855 0 0 0-2.085-.614 16.694 16.694 0 0 0-2.256-.157c-.819 0-1.634.081-2.442.242a6.977 6.977 0 0 0-2.185.814 4.852 4.852 0 0 0-1.599 1.514c-.328.49-.545 1.082-.651 1.771a.5.5 0 0 0 .507.598h3.048a.528.528 0 0 0 .495-.4c.118-.593.365-1.03.742-1.312.457-.343 1.085-.514 1.885-.514.361 0 .7.024 1.014.071.314.048.59.144.828.286s.428.342.571.599.214.604.214 1.043c.02.419-.105.738-.371.956-.267.219-.628.387-1.085.5-.457.114-.981.2-1.571.257-.59.058-1.189.134-1.799.229-.609.095-1.214.223-1.812.385a5.1 5.1 0 0 0-1.6.729c-.467.323-.848.756-1.143 1.299s-.443 1.233-.443 2.07c0 .762.129 1.42.387 1.971.257.553.613 1.01 1.07 1.371.231.184.809.539 1.545.824.748.291 1.916.424 2.264.424.307.021.828.047 1.139.047.923 0 1.826-.092 2.707-.277a7.128 7.128 0 0 0 2.354-.923c.688-.431 1.252-.999 1.692-1.707s.683-1.595.724-2.661v-6.007c0-.896-.201-1.614-.601-2.157a4.113 4.113 0 0 0-1.543-1.271m-16.743-5.998h-1.099a.493.493 0 0 0-.493.493v19.405c0 .271.221.492.493.492h3.069a.494.494 0 0 0 .494-.492V38.63a2.463 2.463 0 0 0-2.464-2.463"/><g transform="translate(122 25)"><defs><filter id="a" filterUnits="userSpaceOnUse" x="-9.631" y="11.167" width="14.879" height="20.944"><feColorMatrix values="1 0 0 0 0 0 1 0 0 0 0 0 1 0 0 0 0 0 1 0"/></filter></defs><mask maskUnits="userSpaceOnUse" x="-9.631" y="11.167" width="14.879" height="20.944" id="b"><path fill="#FFF" d="M5.247 32.111V11.167H-9.631v20.944z" filter="url(#a)"/></mask><path mask="url(#b)" fill="#28AAE1" d="M-2.264 28.901c-.59 0-1.104-.129-1.541-.386-.438-.257-.801-.604-1.086-1.042s-.496-.941-.629-1.514a7.78 7.78 0 0 1-.199-1.771c0-.628.066-1.228.199-1.799a4.719 4.719 0 0 1 .629-1.515 3.224 3.224 0 0 1 1.086-1.041c.438-.258.951-.387 1.541-.387.609 0 1.129.129 1.557.387a3.28 3.28 0 0 1 1.07 1.041 4.7 4.7 0 0 1 .629 1.515 7.91 7.91 0 0 1 .199 1.799c0 .609-.066 1.199-.199 1.771a4.704 4.704 0 0 1-.629 1.514 3.283 3.283 0 0 1-1.07 1.042c-.428.257-.947.386-1.557.386m7.336-2.656c.112-.64.176-1.33.176-2.084 0-1.352-.182-2.518-.543-3.498-.362-.98-.834-1.785-1.414-2.414s-1.232-1.094-1.957-1.399a5.623 5.623 0 0 0-2.198-.456c-.913 0-1.794.176-2.642.527a4.333 4.333 0 0 0-2.014 1.671h-.057v-6.914a.511.511 0 0 0-.51-.511h-3.035a.511.511 0 0 0-.51.511v13.251c0 1.629.457 2.686.457 2.686A7.062 7.062 0 0 0-7.66 30a6.736 6.736 0 0 0 2.356 1.556c.922.371 1.937.557 3.041.557.02 0 .043-.004.07-.008l-.001.008c1.104 0 2.119-.186 3.042-.557A6.722 6.722 0 0 0 3.203 30a7.049 7.049 0 0 0 1.449-2.239.564.564 0 0 0 .051-.101c.004-.014.008-.029.014-.043v-.002c.002-.001.221-.516.355-1.37"/></g></svg>